<svg width="220" height="49" viewBox="0 0 220 49" fill="none" xmlns="http://www.w3.org/2000/svg">
<path d="M0.3125 2.73438H10.3438C12.5 2.73438 14.3906 2.89062 16.0156 3.20312C17.6406 3.5 19 3.99219 20.0938 4.67969C21.1875 5.35156 22.0078 6.24219 22.5547 7.35156C23.1172 8.44531 23.3984 9.79688 23.3984 11.4062C23.3984 12.375 23.2812 13.2812 23.0469 14.125C22.8125 14.9688 22.4688 15.7109 22.0156 16.3516C21.5625 16.9922 21.0078 17.5312 20.3516 17.9688C19.7109 18.3906 18.9688 18.6719 18.125 18.8125V19.0469C18.9844 19.2344 19.7812 19.5078 20.5156 19.8672C21.2656 20.2109 21.9141 20.6953 22.4609 21.3203C23.0234 21.9297 23.4609 22.7031 23.7734 23.6406C24.1016 24.5781 24.2656 25.7188 24.2656 27.0625C24.2656 28.625 23.9922 30.0234 23.4453 31.2578C22.8984 32.4766 22.1094 33.5156 21.0781 34.375C20.0625 35.2188 18.8203 35.8672 17.3516 36.3203C15.8984 36.7734 14.25 37 12.4062 37H0.3125V2.73438ZM7.57812 16.3047H11.3516C12.2578 16.3047 13.0156 16.2266 13.625 16.0703C14.2344 15.8984 14.7266 15.6484 15.1016 15.3203C15.4766 14.9922 15.7422 14.5859 15.8984 14.1016C16.0703 13.6016 16.1562 13.0234 16.1562 12.3672C16.1562 11.0547 15.7422 10.1172 14.9141 9.55469C14.1016 8.97656 12.8047 8.6875 11.0234 8.6875H7.57812V16.3047ZM7.57812 22.0703V31H11.8438C12.7969 31 13.5938 30.8906 14.2344 30.6719C14.8906 30.4531 15.4141 30.1406 15.8047 29.7344C16.2109 29.3281 16.5 28.8359 16.6719 28.2578C16.8438 27.6797 16.9297 27.0391 16.9297 26.3359C16.9297 25.6953 16.8438 25.1172 16.6719 24.6016C16.5 24.0703 16.2031 23.6172 15.7812 23.2422C15.375 22.8672 14.8359 22.5781 14.1641 22.375C13.4922 22.1719 12.6562 22.0703 11.6562 22.0703H7.57812Z" fill="#00458A"/>
<path d="M24.3969 47.0781C23.3813 47.0781 22.4906 47.0234 21.725 46.9141C20.9594 46.8203 20.3109 46.7031 19.7797 46.5625V40.5156C20.3578 40.6406 20.9672 40.75 21.6078 40.8438C22.2328 40.9375 22.9203 40.9844 23.6703 40.9844C24.3891 40.9844 25.0531 40.9062 25.6625 40.75C26.2875 40.5938 26.8266 40.3203 27.2797 39.9297C27.7484 39.5547 28.1078 39.0469 28.3578 38.4062C28.6234 37.7656 28.7563 36.9609 28.7563 35.9922V2.73438H36.0219V35.7578C36.0219 37.7266 35.7328 39.4219 35.1547 40.8438C34.5922 42.2656 33.7953 43.4375 32.7641 44.3594C31.7484 45.2969 30.5297 45.9844 29.1078 46.4219C27.6859 46.8594 26.1156 47.0781 24.3969 47.0781Z" fill="#00458A"/>
<path d="M56.0281 37L48.5047 10.1172H48.2938C48.3875 11.5547 48.4656 12.9453 48.5281 14.2891C48.5594 14.8672 48.5828 15.4609 48.5984 16.0703C48.6297 16.6797 48.6531 17.2812 48.6688 17.875C48.7 18.4688 48.7156 19.0391 48.7156 19.5859C48.7313 20.1328 48.7391 20.625 48.7391 21.0625V37H42.2469V2.73438H52.1375L59.5438 28.9375H59.6844L67.5594 2.73438H77.45V37H70.6766V20.7812C70.6766 20.375 70.6766 19.9141 70.6766 19.3984C70.6922 18.8828 70.7078 18.3359 70.7234 17.7578C70.7391 17.1797 70.7547 16.5938 70.7703 16C70.8016 15.4062 70.825 14.8281 70.8406 14.2656C70.9031 12.9531 70.9578 11.5859 71.0047 10.1641H70.8172L62.7078 37H56.0281Z" fill="#00458A"/>
<path d="M110.183 19.5391C110.183 22.4297 109.784 24.9688 108.988 27.1562C108.206 29.3281 107.066 31.1484 105.566 32.6172C104.081 34.0703 102.253 35.1641 100.081 35.8984C97.925 36.6328 95.4641 37 92.6984 37H83.675V2.73438H93.7063C96.2219 2.73438 98.4875 3.09375 100.503 3.8125C102.534 4.53125 104.269 5.60156 105.706 7.02344C107.144 8.42969 108.245 10.1797 109.011 12.2734C109.792 14.3672 110.183 16.7891 110.183 19.5391ZM102.823 19.7266C102.823 17.8203 102.628 16.1797 102.238 14.8047C101.863 13.4141 101.308 12.2656 100.573 11.3594C99.8547 10.4531 98.9641 9.78125 97.9016 9.34375C96.8547 8.90625 95.6516 8.6875 94.2922 8.6875H90.9406V31H93.6125C96.675 31 98.9719 30.0625 100.503 28.1875C102.05 26.3125 102.823 23.4922 102.823 19.7266Z" fill="black"/>
<path d="M124.916 15.3906C123.65 15.3906 122.595 15.8359 121.752 16.7266C120.923 17.6172 120.447 19.0156 120.322 20.9219H129.439C129.423 20.125 129.322 19.3906 129.134 18.7188C128.947 18.0469 128.666 17.4688 128.291 16.9844C127.916 16.4844 127.447 16.0938 126.884 15.8125C126.322 15.5312 125.666 15.3906 124.916 15.3906ZM125.83 37.4688C123.955 37.4688 122.228 37.1953 120.65 36.6484C119.072 36.1016 117.713 35.2812 116.572 34.1875C115.431 33.0781 114.541 31.6875 113.9 30.0156C113.275 28.3281 112.963 26.3516 112.963 24.0859C112.963 21.7891 113.252 19.7812 113.83 18.0625C114.408 16.3438 115.213 14.9141 116.244 13.7734C117.291 12.6172 118.541 11.75 119.994 11.1719C121.463 10.5938 123.088 10.3047 124.869 10.3047C126.603 10.3047 128.166 10.5703 129.556 11.1016C130.962 11.6172 132.15 12.3828 133.119 13.3984C134.103 14.4141 134.853 15.6641 135.369 17.1484C135.9 18.6172 136.166 20.3047 136.166 22.2109V25.6797H120.181C120.213 26.6797 120.369 27.5859 120.65 28.3984C120.947 29.1953 121.353 29.875 121.869 30.4375C122.4 30.9844 123.033 31.4062 123.767 31.7031C124.517 32 125.369 32.1484 126.322 32.1484C127.119 32.1484 127.869 32.1094 128.572 32.0312C129.291 31.9375 129.986 31.8047 130.658 31.6328C131.33 31.4609 131.994 31.25 132.65 31C133.306 30.7344 133.978 30.4297 134.666 30.0859V35.6172C134.041 35.9453 133.408 36.2266 132.767 36.4609C132.142 36.6797 131.478 36.8672 130.775 37.0234C130.072 37.1797 129.314 37.2891 128.502 37.3516C127.689 37.4297 126.798 37.4688 125.83 37.4688Z" fill="black"/>
<path d="M157.273 29.2188C157.273 30.5938 157.023 31.7969 156.523 32.8281C156.023 33.8594 155.312 34.7188 154.391 35.4062C153.469 36.0938 152.352 36.6094 151.039 36.9531C149.727 37.2969 148.258 37.4688 146.633 37.4688C145.773 37.4688 144.977 37.4375 144.242 37.375C143.508 37.3281 142.812 37.2422 142.156 37.1172C141.5 36.9922 140.867 36.8359 140.258 36.6484C139.648 36.4609 139.031 36.2266 138.406 35.9453V30.0391C139.062 30.3672 139.75 30.6641 140.469 30.9297C141.203 31.1953 141.93 31.4297 142.648 31.6328C143.367 31.8203 144.062 31.9688 144.734 32.0781C145.422 32.1875 146.055 32.2422 146.633 32.2422C147.273 32.2422 147.82 32.1875 148.273 32.0781C148.727 31.9531 149.094 31.7891 149.375 31.5859C149.672 31.3672 149.883 31.1172 150.008 30.8359C150.148 30.5391 150.219 30.2266 150.219 29.8984C150.219 29.5703 150.164 29.2812 150.055 29.0312C149.961 28.7656 149.734 28.4922 149.375 28.2109C149.016 27.9141 148.484 27.5859 147.781 27.2266C147.094 26.8516 146.164 26.3984 144.992 25.8672C143.852 25.3516 142.859 24.8438 142.016 24.3438C141.188 23.8281 140.5 23.2578 139.953 22.6328C139.422 22.0078 139.023 21.2969 138.758 20.5C138.492 19.6875 138.359 18.7266 138.359 17.6172C138.359 16.3984 138.594 15.3359 139.062 14.4297C139.531 13.5078 140.195 12.7422 141.055 12.1328C141.914 11.5234 142.945 11.0703 144.148 10.7734C145.367 10.4609 146.719 10.3047 148.203 10.3047C149.766 10.3047 151.25 10.4844 152.656 10.8438C154.062 11.2031 155.508 11.7422 156.992 12.4609L154.836 17.5234C153.648 16.9609 152.516 16.5 151.438 16.1406C150.359 15.7812 149.281 15.6016 148.203 15.6016C147.234 15.6016 146.531 15.7734 146.094 16.1172C145.672 16.4609 145.461 16.9297 145.461 17.5234C145.461 17.8359 145.516 18.1172 145.625 18.3672C145.734 18.6016 145.953 18.8516 146.281 19.1172C146.609 19.3672 147.07 19.6484 147.664 19.9609C148.258 20.2578 149.031 20.625 149.984 21.0625C151.094 21.5469 152.094 22.0312 152.984 22.5156C153.875 22.9844 154.641 23.5234 155.281 24.1328C155.922 24.7422 156.414 25.4531 156.758 26.2656C157.102 27.0781 157.273 28.0625 157.273 29.2188Z" fill="black"/>
<path d="M160.217 4.02344C160.217 3.35156 160.319 2.79688 160.522 2.35938C160.725 1.90625 160.998 1.54688 161.342 1.28125C161.702 1 162.116 0.804688 162.584 0.695312C163.069 0.585938 163.577 0.53125 164.108 0.53125C164.639 0.53125 165.139 0.585938 165.608 0.695312C166.077 0.804688 166.483 1 166.827 1.28125C167.186 1.54688 167.467 1.90625 167.67 2.35938C167.889 2.79688 167.998 3.35156 167.998 4.02344C167.998 4.67969 167.889 5.23438 167.67 5.6875C167.467 6.14062 167.186 6.50781 166.827 6.78906C166.483 7.05469 166.077 7.25 165.608 7.375C165.139 7.48438 164.639 7.53906 164.108 7.53906C163.577 7.53906 163.069 7.48438 162.584 7.375C162.116 7.25 161.702 7.05469 161.342 6.78906C160.998 6.50781 160.725 6.14062 160.522 5.6875C160.319 5.23438 160.217 4.67969 160.217 4.02344ZM167.67 37H160.522V10.7969H167.67V37Z" fill="black"/>
<path d="M194.473 10.8438V14.7344L190.653 15.9297C190.966 16.4609 191.184 17.0156 191.309 17.5938C191.434 18.1562 191.497 18.7656 191.497 19.4219C191.497 20.75 191.286 21.9688 190.864 23.0781C190.442 24.1719 189.817 25.1094 188.989 25.8906C188.161 26.6719 187.122 27.2812 185.872 27.7188C184.622 28.1406 183.169 28.3516 181.512 28.3516C181.153 28.3516 180.762 28.3359 180.341 28.3047C179.919 28.2578 179.606 28.2109 179.403 28.1641C179.091 28.4297 178.841 28.7109 178.653 29.0078C178.481 29.2891 178.395 29.6328 178.395 30.0391C178.395 30.3672 178.497 30.6328 178.7 30.8359C178.903 31.0234 179.169 31.1797 179.497 31.3047C179.825 31.4141 180.208 31.4922 180.645 31.5391C181.083 31.5703 181.536 31.5859 182.005 31.5859H186.083C187.348 31.5859 188.481 31.7344 189.481 32.0312C190.481 32.3125 191.325 32.75 192.012 33.3438C192.716 33.9375 193.255 34.6953 193.63 35.6172C194.005 36.5234 194.192 37.6094 194.192 38.875C194.192 40.3594 193.895 41.6953 193.302 42.8828C192.708 44.0859 191.817 45.1016 190.63 45.9297C189.458 46.7734 187.997 47.4141 186.247 47.8516C184.497 48.3047 182.473 48.5312 180.177 48.5312C178.395 48.5312 176.841 48.3594 175.512 48.0156C174.184 47.6875 173.075 47.2031 172.184 46.5625C171.294 45.9375 170.622 45.1797 170.169 44.2891C169.731 43.3984 169.512 42.3906 169.512 41.2656C169.512 40.3125 169.677 39.4844 170.005 38.7812C170.333 38.0781 170.77 37.4766 171.317 36.9766C171.864 36.4766 172.481 36.0703 173.169 35.7578C173.872 35.4453 174.591 35.2031 175.325 35.0312C174.997 34.8906 174.669 34.6953 174.341 34.4453C174.028 34.1953 173.739 33.9062 173.473 33.5781C173.223 33.25 173.012 32.8906 172.841 32.5C172.684 32.0938 172.606 31.6719 172.606 31.2344C172.606 30.7344 172.677 30.2812 172.817 29.875C172.973 29.4688 173.192 29.0938 173.473 28.75C173.755 28.3906 174.106 28.0547 174.528 27.7422C174.95 27.4297 175.427 27.1094 175.958 26.7812C174.583 26.1875 173.489 25.2344 172.677 23.9219C171.88 22.6094 171.481 21.0625 171.481 19.2812C171.481 17.875 171.7 16.6172 172.137 15.5078C172.575 14.3984 173.216 13.4609 174.059 12.6953C174.903 11.9141 175.95 11.3203 177.2 10.9141C178.45 10.5078 179.887 10.3047 181.512 10.3047C181.825 10.3047 182.177 10.3281 182.567 10.375C182.958 10.4062 183.341 10.4531 183.716 10.5156C184.106 10.5625 184.466 10.6172 184.794 10.6797C185.122 10.7422 185.38 10.7969 185.567 10.8438H194.473ZM175.723 40.7031C175.723 41.0938 175.802 41.4688 175.958 41.8281C176.13 42.2031 176.403 42.5312 176.778 42.8125C177.153 43.0938 177.645 43.3125 178.255 43.4688C178.864 43.6406 179.614 43.7266 180.505 43.7266C182.942 43.7266 184.778 43.3828 186.012 42.6953C187.247 42.0078 187.864 41.0859 187.864 39.9297C187.864 38.9453 187.481 38.2891 186.716 37.9609C185.95 37.6328 184.762 37.4688 183.153 37.4688H179.848C179.427 37.4688 178.973 37.5156 178.489 37.6094C178.005 37.7188 177.559 37.8984 177.153 38.1484C176.747 38.3984 176.403 38.7266 176.122 39.1328C175.856 39.5547 175.723 40.0781 175.723 40.7031ZM178.302 19.375C178.302 20.7969 178.567 21.8984 179.098 22.6797C179.63 23.4609 180.434 23.8516 181.512 23.8516C182.637 23.8516 183.45 23.4609 183.95 22.6797C184.45 21.8984 184.7 20.7969 184.7 19.375C184.7 17.9688 184.45 16.8516 183.95 16.0234C183.466 15.1953 182.653 14.7812 181.512 14.7812C179.372 14.7812 178.302 16.3125 178.302 19.375Z" fill="black"/>
<path d="M219.613 37H212.464V21.6953C212.464 19.8047 212.175 18.3906 211.597 17.4531C211.034 16.5 210.128 16.0234 208.878 16.0234C207.941 16.0234 207.159 16.2109 206.534 16.5859C205.909 16.9609 205.409 17.5156 205.034 18.25C204.675 18.9844 204.417 19.8906 204.261 20.9688C204.105 22.0469 204.027 23.2812 204.027 24.6719V37H196.878V10.7969H202.339L203.3 14.1484H203.698C204.073 13.4766 204.527 12.8984 205.058 12.4141C205.605 11.9297 206.198 11.5312 206.839 11.2188C207.48 10.9062 208.159 10.6797 208.878 10.5391C209.597 10.3828 210.331 10.3047 211.081 10.3047C212.363 10.3047 213.527 10.4922 214.573 10.8672C215.62 11.2266 216.519 11.7969 217.269 12.5781C218.019 13.3594 218.597 14.3594 219.003 15.5781C219.409 16.7812 219.613 18.2266 219.613 19.9141V37Z" fill="black"/>
</svg>
