<svg width="354" height="35" viewBox="0 0 354 35" fill="none" xmlns="http://www.w3.org/2000/svg">
<path d="M10.928 0.495999C13.648 0.495999 15.808 0.751999 17.408 1.264C19.008 1.744 20.16 2.608 20.864 3.856C21.6 5.104 21.968 6.864 21.968 9.136C21.968 11.504 21.52 13.312 20.624 14.56C19.76 15.808 18.336 16.528 16.352 16.72V16.912C18.816 17.136 20.528 18 21.488 19.504C22.48 21.008 22.976 23.088 22.976 25.744C22.976 28.016 22.624 29.776 21.92 31.024C21.216 32.272 20.08 33.152 18.512 33.664C16.976 34.144 14.944 34.384 12.416 34.384C10.528 34.384 8.896 34.368 7.52 34.336C6.176 34.336 4.928 34.304 3.776 34.24C2.624 34.176 1.424 34.096 0.176 34L0.848 30.64C1.552 30.672 2.88 30.704 4.832 30.736C6.816 30.768 9.12 30.784 11.744 30.784C13.504 30.784 14.88 30.64 15.872 30.352C16.896 30.032 17.616 29.456 18.032 28.624C18.48 27.792 18.704 26.592 18.704 25.024C18.704 23.296 18.48 21.968 18.032 21.04C17.584 20.112 16.832 19.456 15.776 19.072C14.72 18.688 13.28 18.48 11.456 18.448H0.8V15.232H11.408C13.008 15.2 14.272 15.04 15.2 14.752C16.16 14.432 16.848 13.872 17.264 13.072C17.68 12.24 17.888 11.088 17.888 9.616C17.888 8.112 17.664 6.96 17.216 6.16C16.768 5.36 16.016 4.816 14.96 4.528C13.936 4.24 12.528 4.096 10.736 4.096C9.168 4.096 7.76 4.096 6.512 4.096C5.264 4.096 4.16 4.112 3.2 4.144C2.272 4.144 1.488 4.176 0.848 4.24L0.176 0.879997C1.296 0.751999 2.352 0.671999 3.344 0.639997C4.368 0.575998 5.472 0.543999 6.656 0.543999C7.872 0.511999 9.296 0.495999 10.928 0.495999ZM4.304 0.879997V34H0.176V0.879997H4.304ZM32.6776 10.624L33.2056 15.088L33.5896 15.808V34H29.5096V10.624H32.6776ZM44.1496 10.048L43.6696 13.888H42.3256C40.9496 13.888 39.5736 14.176 38.1976 14.752C36.8216 15.296 35.1416 16.08 33.1576 17.104L32.8216 14.56C34.5496 13.152 36.2776 12.048 38.0056 11.248C39.7656 10.448 41.4616 10.048 43.0936 10.048H44.1496ZM59.8153 10.048C61.5433 10.048 62.9993 10.288 64.1833 10.768C65.3993 11.216 66.3113 11.984 66.9193 13.072C67.5273 14.16 67.8313 15.648 67.8313 17.536V34H64.6153L63.9913 28.912L63.7033 28.384V17.536C63.7033 16.096 63.3673 15.072 62.6953 14.464C62.0553 13.824 60.8073 13.504 58.9513 13.504C57.7353 13.504 56.1993 13.568 54.3433 13.696C52.5193 13.824 50.7113 13.968 48.9193 14.128L48.5353 11.104C49.6233 10.912 50.8073 10.736 52.0872 10.576C53.3993 10.416 54.7273 10.288 56.0713 10.192C57.4153 10.096 58.6633 10.048 59.8153 10.048ZM65.9113 19.6L65.8633 22.672L54.6793 22.72C53.5593 22.752 52.7753 23.056 52.3273 23.632C51.8793 24.176 51.6553 24.944 51.6553 25.936V27.424C51.6553 28.64 51.9433 29.536 52.5193 30.112C53.0953 30.656 54.0233 30.928 55.3033 30.928C56.1993 30.928 57.2073 30.768 58.3273 30.448C59.4793 30.096 60.6313 29.568 61.7833 28.864C62.9353 28.16 63.9913 27.264 64.9513 26.176V29.2C64.5993 29.648 64.0873 30.176 63.4153 30.784C62.7753 31.36 61.9913 31.936 61.0633 32.512C60.1673 33.056 59.1593 33.52 58.0393 33.904C56.9513 34.256 55.7673 34.432 54.4873 34.432C53.1113 34.432 51.8953 34.192 50.8393 33.712C49.7833 33.2 48.9513 32.464 48.3433 31.504C47.7673 30.512 47.4793 29.312 47.4793 27.904V25.36C47.4793 23.536 48.0393 22.128 49.1593 21.136C50.3113 20.112 51.9113 19.6 53.9593 19.6H65.9113ZM89.327 10.048C93.551 10.048 95.663 12.192 95.663 16.48V34H91.583V17.632C91.583 16.064 91.327 14.992 90.815 14.416C90.303 13.808 89.439 13.504 88.223 13.504C86.783 13.504 85.343 13.856 83.903 14.56C82.463 15.264 80.751 16.224 78.767 17.44L78.575 14.512C80.399 13.104 82.207 12.016 83.999 11.248C85.791 10.448 87.567 10.048 89.327 10.048ZM78.575 10.624L78.911 15.088L79.199 15.808V34H75.119V10.624H78.575ZM110.786 10.048C112.322 10.048 113.842 10.256 115.346 10.672C116.85 11.056 118.29 11.664 119.666 12.496L119.426 15.04C117.922 14.592 116.594 14.24 115.442 13.984C114.29 13.728 113.058 13.6 111.746 13.6C110.402 13.6 109.314 13.84 108.482 14.32C107.682 14.768 107.09 15.616 106.706 16.864C106.322 18.112 106.13 19.888 106.13 22.192C106.13 24.496 106.306 26.288 106.658 27.568C107.042 28.848 107.634 29.744 108.434 30.256C109.234 30.768 110.258 31.024 111.506 31.024C112.434 31.024 113.266 30.912 114.002 30.688C114.77 30.432 115.57 30.032 116.402 29.488C117.266 28.944 118.274 28.256 119.426 27.424L119.81 30.304C118.53 31.488 117.074 32.496 115.442 33.328C113.81 34.16 112.05 34.576 110.162 34.576C107.218 34.576 105.106 33.536 103.826 31.456C102.578 29.376 101.954 26.304 101.954 22.24C101.954 19.2 102.274 16.8 102.914 15.04C103.554 13.248 104.53 11.968 105.842 11.2C107.154 10.432 108.802 10.048 110.786 10.048ZM122.978 0.399998V34H119.81L119.33 29.92L118.898 29.584V13.552L119.186 12.832C119.058 11.936 118.978 11.072 118.946 10.24C118.914 9.408 118.898 8.528 118.898 7.6V0.399998H122.978ZM140.413 10.048C143.101 10.048 145.245 10.448 146.845 11.248C148.477 12.048 149.645 13.36 150.349 15.184C151.053 16.976 151.405 19.36 151.405 22.336C151.405 25.312 151.053 27.712 150.349 29.536C149.645 31.328 148.477 32.624 146.845 33.424C145.245 34.224 143.101 34.624 140.413 34.624C137.757 34.624 135.613 34.224 133.981 33.424C132.381 32.624 131.213 31.328 130.477 29.536C129.773 27.712 129.421 25.312 129.421 22.336C129.421 19.36 129.773 16.976 130.477 15.184C131.213 13.36 132.381 12.048 133.981 11.248C135.613 10.448 137.757 10.048 140.413 10.048ZM140.413 13.504C138.717 13.504 137.373 13.776 136.381 14.32C135.421 14.832 134.733 15.728 134.317 17.008C133.901 18.288 133.693 20.064 133.693 22.336C133.693 24.608 133.901 26.384 134.317 27.664C134.733 28.944 135.421 29.856 136.381 30.4C137.373 30.912 138.717 31.168 140.413 31.168C142.109 31.168 143.453 30.912 144.445 30.4C145.437 29.856 146.141 28.944 146.557 27.664C146.973 26.384 147.181 24.608 147.181 22.336C147.181 20.064 146.973 18.288 146.557 17.008C146.141 15.728 145.437 14.832 144.445 14.32C143.453 13.776 142.109 13.504 140.413 13.504ZM200.222 0.879997C201.374 0.879997 201.95 1.472 201.95 2.656L203.342 34H199.118L197.918 4.384H196.91L189.518 28.816C189.262 29.776 188.654 30.256 187.694 30.256H183.902C182.91 30.256 182.27 29.776 181.982 28.816L174.59 4.384H173.63L172.478 34H168.254L169.55 2.656C169.614 1.472 170.206 0.879997 171.326 0.879997H176.126C177.022 0.879997 177.614 1.36 177.902 2.32L184.094 22.528C184.35 23.264 184.558 24 184.718 24.736C184.91 25.472 185.118 26.224 185.342 26.992H186.206C186.43 26.224 186.638 25.472 186.83 24.736C187.022 24 187.23 23.232 187.454 22.432L193.646 2.32C193.902 1.36 194.51 0.879997 195.47 0.879997H200.222ZM221.628 10.048C223.356 10.048 224.812 10.288 225.996 10.768C227.212 11.216 228.124 11.984 228.732 13.072C229.34 14.16 229.644 15.648 229.644 17.536V34H226.428L225.804 28.912L225.516 28.384V17.536C225.516 16.096 225.18 15.072 224.508 14.464C223.868 13.824 222.62 13.504 220.764 13.504C219.548 13.504 218.012 13.568 216.156 13.696C214.332 13.824 212.524 13.968 210.732 14.128L210.348 11.104C211.436 10.912 212.62 10.736 213.9 10.576C215.212 10.416 216.54 10.288 217.884 10.192C219.228 10.096 220.476 10.048 221.628 10.048ZM227.724 19.6L227.676 22.672L216.492 22.72C215.372 22.752 214.588 23.056 214.14 23.632C213.692 24.176 213.468 24.944 213.468 25.936V27.424C213.468 28.64 213.756 29.536 214.332 30.112C214.908 30.656 215.836 30.928 217.116 30.928C218.012 30.928 219.02 30.768 220.14 30.448C221.292 30.096 222.444 29.568 223.596 28.864C224.748 28.16 225.804 27.264 226.764 26.176V29.2C226.412 29.648 225.9 30.176 225.228 30.784C224.588 31.36 223.804 31.936 222.876 32.512C221.98 33.056 220.972 33.52 219.852 33.904C218.764 34.256 217.58 34.432 216.3 34.432C214.924 34.432 213.708 34.192 212.652 33.712C211.596 33.2 210.764 32.464 210.156 31.504C209.58 30.512 209.292 29.312 209.292 27.904V25.36C209.292 23.536 209.852 22.128 210.972 21.136C212.124 20.112 213.724 19.6 215.772 19.6H227.724ZM265.396 10.048C267.412 10.048 268.948 10.592 270.004 11.68C271.092 12.768 271.636 14.368 271.636 16.48V34H267.604V17.632C267.572 16.192 267.284 15.152 266.74 14.512C266.196 13.84 265.268 13.504 263.956 13.504C263.124 13.504 262.324 13.648 261.556 13.936C260.82 14.192 260.004 14.608 259.108 15.184C258.212 15.76 257.124 16.512 255.844 17.44L255.604 14.56C257.3 13.056 258.948 11.936 260.548 11.2C262.148 10.432 263.764 10.048 265.396 10.048ZM240.292 10.624L240.58 15.088L241.012 15.808V34H236.932V10.624H240.292ZM250.084 10.048C252.068 10.048 253.588 10.592 254.644 11.68C255.7 12.736 256.244 14.336 256.276 16.48V34H252.34V17.632C252.34 16.128 252.036 15.072 251.428 14.464C250.82 13.824 249.908 13.504 248.692 13.504C247.892 13.504 247.108 13.632 246.34 13.888C245.604 14.144 244.772 14.56 243.844 15.136C242.948 15.712 241.844 16.48 240.532 17.44L240.243 14.56C241.94 13.056 243.588 11.936 245.188 11.2C246.788 10.432 248.42 10.048 250.084 10.048ZM288.866 10.048C291.554 10.048 293.698 10.448 295.298 11.248C296.93 12.048 298.098 13.36 298.802 15.184C299.506 16.976 299.858 19.36 299.858 22.336C299.858 25.312 299.506 27.712 298.802 29.536C298.098 31.328 296.93 32.624 295.298 33.424C293.698 34.224 291.554 34.624 288.866 34.624C286.21 34.624 284.066 34.224 282.434 33.424C280.834 32.624 279.666 31.328 278.93 29.536C278.226 27.712 277.874 25.312 277.874 22.336C277.874 19.36 278.226 16.976 278.93 15.184C279.666 13.36 280.834 12.048 282.434 11.248C284.066 10.448 286.21 10.048 288.866 10.048ZM288.866 13.504C287.17 13.504 285.826 13.776 284.834 14.32C283.874 14.832 283.186 15.728 282.77 17.008C282.354 18.288 282.146 20.064 282.146 22.336C282.146 24.608 282.354 26.384 282.77 27.664C283.186 28.944 283.874 29.856 284.834 30.4C285.826 30.912 287.17 31.168 288.866 31.168C290.562 31.168 291.906 30.912 292.898 30.4C293.89 29.856 294.594 28.944 295.01 27.664C295.426 26.384 295.634 24.608 295.634 22.336C295.634 20.064 295.426 18.288 295.01 17.008C294.594 15.728 293.89 14.832 292.898 14.32C291.906 13.776 290.562 13.504 288.866 13.504ZM320.468 10.048C324.692 10.048 326.804 12.192 326.804 16.48V34H322.724V17.632C322.724 16.064 322.468 14.992 321.956 14.416C321.444 13.808 320.58 13.504 319.364 13.504C317.924 13.504 316.484 13.856 315.044 14.56C313.604 15.264 311.892 16.224 309.908 17.44L309.716 14.512C311.54 13.104 313.348 12.016 315.14 11.248C316.932 10.448 318.708 10.048 320.468 10.048ZM309.716 10.624L310.052 15.088L310.34 15.808V34H306.26V10.624H309.716ZM343.75 10.048C347.27 10.048 349.814 10.688 351.382 11.968C352.982 13.248 353.782 15.152 353.782 17.68C353.814 19.76 353.382 21.392 352.486 22.576C351.59 23.728 350.166 24.304 348.214 24.304H334.582V21.136H347.158C348.214 21.136 348.902 20.784 349.222 20.08C349.542 19.344 349.702 18.544 349.702 17.68C349.67 16.176 349.222 15.104 348.358 14.464C347.494 13.824 346.022 13.504 343.942 13.504C342.246 13.504 340.902 13.76 339.91 14.272C338.95 14.752 338.262 15.616 337.846 16.864C337.462 18.08 337.27 19.792 337.27 22C337.27 24.496 337.51 26.4 337.99 27.712C338.502 29.024 339.302 29.92 340.39 30.4C341.478 30.88 342.918 31.12 344.71 31.12C345.958 31.12 347.318 31.072 348.79 30.976C350.294 30.848 351.638 30.704 352.822 30.544L353.254 33.28C352.518 33.568 351.606 33.808 350.518 34C349.462 34.192 348.358 34.336 347.206 34.432C346.086 34.528 345.078 34.576 344.182 34.576C341.494 34.576 339.334 34.176 337.702 33.376C336.07 32.544 334.87 31.232 334.102 29.44C333.366 27.616 332.998 25.216 332.998 22.24C332.998 19.168 333.366 16.752 334.102 14.992C334.87 13.2 336.038 11.936 337.606 11.2C339.206 10.432 341.254 10.048 343.75 10.048Z" fill="#383838"/>
</svg>
